HIERARCHY
ROOT Hips
{
	OFFSET 0.000000 88.474243 0.000000
	CHANNELS 6 Xposition Yposition Zposition Zrotation Yrotation Xrotation 
	JOINT Hips_Spine
	{
		OFFSET 0.000000 0.000000 0.000000
		CHANNELS 3 Zrotation Yrotation Xrotation
		JOINT Spine
		{
			OFFSET 0.005100 8.711998 -0.691000
			CHANNELS 3 Zrotation Yrotation Xrotation
			JOINT Spine1
			{
				OFFSET -0.009200 8.660301 -1.275000
				CHANNELS 3 Zrotation Yrotation Xrotation
				JOINT Spine2
				{
					OFFSET 0.006300 9.852501 -1.857000
					CHANNELS 3 Zrotation Yrotation Xrotation
					JOINT Spine2_Neck
					{
						OFFSET 0.000000 0.000000 0.000000
						CHANNELS 3 Zrotation Yrotation Xrotation
						JOINT Neck
						{
							OFFSET 0.016300 11.420799 -0.263300
							CHANNELS 3 Zrotation Yrotation Xrotation
							End Site #name: Head
							{
								OFFSET -0.019200 9.262405 2.362500
							}
						}
					}
					JOINT Spine2_LeftShoulder
					{
						OFFSET 0.000000 0.000000 0.000000
						CHANNELS 3 Zrotation Yrotation Xrotation
						JOINT LeftShoulder
						{
							OFFSET 5.616900 6.732201 -0.345700
							CHANNELS 3 Zrotation Yrotation Xrotation
							JOINT LeftArm
							{
								OFFSET 10.664888 -0.183372 -2.440700
								CHANNELS 3 Zrotation Yrotation Xrotation
								JOINT LeftForeArm
								{
									OFFSET 27.459126 0.000000 0.000000
									CHANNELS 3 Zrotation Yrotation Xrotation
									End Site #name: LeftHand
									{
										OFFSET 21.306858 0.000000 0.000000
									}
								}
							}
						}
					}
					JOINT Spine2_RightShoulder
					{
						OFFSET 0.000000 0.000000 0.000000
						CHANNELS 3 Zrotation Yrotation Xrotation
						JOINT RightShoulder
						{
							OFFSET -5.580300 6.737503 -0.344400
							CHANNELS 3 Zrotation Yrotation Xrotation
							JOINT RightArm
							{
								OFFSET -10.679335 -0.188484 -2.383900
								CHANNELS 3 Zrotation Yrotation Xrotation
								JOINT RightForeArm
								{
									OFFSET -27.503529 0.000000 0.000000
									CHANNELS 3 Zrotation Yrotation Xrotation
									End Site #name: RightHand
									{
										OFFSET -21.306808 0.000000 0.000000
									}
								}
							}
						}
					}
				}
			}
		}
	}
	JOINT Hips_LeftUpLeg
	{
		OFFSET 0.000000 0.000000 0.000000
		CHANNELS 3 Zrotation Yrotation Xrotation
		JOINT LeftUpLeg
		{
			OFFSET 6.857700 -6.739601 0.312100
			CHANNELS 3 Zrotation Yrotation Xrotation
			JOINT LeftLeg
			{
				OFFSET -0.367590 -34.731552 -4.572400
				CHANNELS 3 Zrotation Yrotation Xrotation
				End Site #name: LeftFoot
				{
					OFFSET 0.367590 -34.656704 -6.067400
				}
			}
		}
	}
	JOINT Hips_RightUpLeg
	{
		OFFSET 0.000000 0.000000 0.000000
		CHANNELS 3 Zrotation Yrotation Xrotation
		JOINT RightUpLeg
		{
			OFFSET -6.876100 -6.733299 0.301000
			CHANNELS 3 Zrotation Yrotation Xrotation
			JOINT RightLeg
			{
				OFFSET 0.347353 -34.795158 -4.515900
				CHANNELS 3 Zrotation Yrotation Xrotation
				End Site #name: RightFoot
				{
					OFFSET -0.347353 -34.589367 -6.070300
				}
			}
		}
	}
}
MOTION
Frames: 9
Frame Time: 0.041667
-0.263127 -0.129456 -1.140800 -1.449369 -2.427475 -0.998741 0.000000 -0.000000 0.000000 -0.993815 0.763529 5.312626 -1.248673 -0.028784 2.830148 0.000000 0.000000 0.000000 -1.426392 -0.424575 1.734113 3.818252 -3.138153 9.481910 -1.347092 -0.432052 2.923463 -3.736276 6.731171 -0.686468 -71.117189 -4.670013 31.041671 0.121146 -7.183205 0.230429 -1.718243 -0.332162 2.488822 9.042476 -3.514730 0.347712 49.086363 36.010517 -6.018058 179.329131 41.895770 -179.770686 0.000000 -0.000000 -0.000000 1.594641 12.306907 -17.256267 2.967892 2.486777 18.545507 0.000000 -0.000000 0.000000 -1.029332 -10.295302 -12.559426 -0.042328 -1.556234 17.845489 
-0.307687 -0.135502 -1.170534 -1.390837 -2.436672 -1.004077 0.000000 -0.000000 0.000000 -0.975328 0.747862 5.270113 -1.214925 -0.034113 2.830033 0.000000 0.000000 0.000000 -1.383371 -0.438277 1.752911 3.754196 -3.099368 9.480782 -1.310731 -0.448463 2.933422 -3.789974 6.680000 -0.682081 -71.240758 -4.904772 30.793959 0.122422 -6.905632 0.227460 -1.677409 -0.351958 2.502319 9.265978 -3.543804 0.332399 49.634643 35.671634 -5.295072 179.339313 42.147801 -179.771232 0.000000 -0.000000 -0.000000 1.603037 12.320088 -17.220528 2.945584 2.435801 18.489062 0.000000 -0.000000 0.000000 -1.023367 -10.291828 -12.542618 -0.041013 -1.563866 17.822203 
-0.346425 -0.141617 -1.200492 -1.336323 -2.452242 -1.009964 0.000000 -0.000000 0.000000 -0.958415 0.737136 5.215204 -1.180897 -0.035270 2.826712 0.000000 0.000000 0.000000 -1.340076 -0.444680 1.770105 3.685382 -3.056136 9.478948 -1.274041 -0.454363 2.942625 -3.838435 6.622433 -0.676949 -71.357427 -5.149433 30.550741 0.122568 -6.649024 0.225902 -1.636204 -0.365631 2.514973 9.497375 -3.564308 0.317403 50.195092 35.309864 -4.542840 179.351344 42.406624 -179.771279 0.000000 -0.000000 -0.000000 1.609725 12.329323 -17.183005 2.922993 2.388450 18.426727 0.000000 -0.000000 0.000000 -1.019599 -10.287176 -12.525913 -0.039850 -1.572591 17.798656 
-0.379050 -0.147817 -1.230604 -1.284588 -2.464949 -1.016393 0.000000 -0.000000 0.000000 -0.940027 0.723643 5.153966 -1.144500 -0.034590 2.822706 0.000000 0.000000 0.000000 -1.295214 -0.448265 1.787373 3.608215 -3.008280 9.471159 -1.235591 -0.455130 2.950264 -3.891356 6.560002 -0.671466 -71.476749 -5.382423 30.274333 0.122782 -6.394864 0.221773 -1.594433 -0.375975 2.527014 9.741556 -3.585650 0.301770 50.770785 34.914368 -3.757360 179.365986 42.688905 -179.768777 0.000000 -0.000000 -0.000000 1.616779 12.341319 -17.145044 2.906030 2.353267 18.363422 0.000000 -0.000000 0.000000 -1.016986 -10.280117 -12.505188 -0.039986 -1.583357 17.770344 
-0.405494 -0.154011 -1.260844 -1.236381 -2.477153 -1.023053 0.000000 -0.000000 0.000000 -0.922178 0.710258 5.087825 -1.107054 -0.033578 2.818381 0.000000 0.000000 0.000000 -1.248811 -0.450413 1.806414 3.522875 -2.956243 9.455182 -1.195706 -0.455610 2.956801 -3.940090 6.494919 -0.665798 -71.579940 -5.618527 29.991496 0.122392 -6.128838 0.218810 -1.550732 -0.386959 2.538820 10.004895 -3.615221 0.284316 51.381515 34.445409 -2.877782 179.383060 43.040843 -179.765420 0.000000 -0.000000 -0.000000 1.621936 12.350948 -17.113391 2.891247 2.326292 18.311537 0.000000 -0.000000 0.000000 -1.016169 -10.272832 -12.491961 -0.039880 -1.590337 17.752164 
-0.426006 -0.160094 -1.291185 -1.191170 -2.482857 -1.029523 0.000000 -0.000000 0.000000 -0.909529 0.700511 5.018391 -1.067320 -0.032031 2.812777 0.000000 0.000000 0.000000 -1.199843 -0.451945 1.826857 3.431160 -2.902171 9.425999 -1.154799 -0.455216 2.963182 -3.997957 6.420486 -0.659612 -71.692609 -5.842014 29.694092 0.121323 -5.865204 0.214520 -1.506113 -0.393312 2.549086 10.291293 -3.657549 0.261288 52.046327 33.876861 -1.913858 179.401342 43.454045 -179.762852 0.000000 -0.000000 -0.000000 1.624096 12.360765 -17.082986 2.882199 2.309734 18.261288 0.000000 -0.000000 0.000000 -1.019370 -10.267602 -12.475069 -0.038415 -1.595200 17.729344 
-0.440850 -0.166116 -1.321679 -1.149765 -2.486974 -1.036687 0.000000 -0.000000 0.000000 -0.891332 0.689866 4.956313 -1.026366 -0.030148 2.807317 0.000000 0.000000 0.000000 -1.149926 -0.452955 1.845984 3.331220 -2.844800 9.391616 -1.110519 -0.454088 2.968064 -4.061907 6.343901 -0.652900 -71.810203 -6.074269 29.415481 0.120498 -5.583051 0.211074 -1.458662 -0.393549 2.558493 10.594746 -3.710663 0.232176 52.812194 33.232903 -0.814457 179.420429 43.967970 -179.758434 0.000000 -0.000000 -0.000000 1.624946 12.371423 -17.052873 2.875459 2.302989 18.209400 0.000000 -0.000000 0.000000 -1.023699 -10.263509 -12.455704 -0.038479 -1.602495 17.703302 
-0.450383 -0.171999 -1.352262 -1.111608 -2.491387 -1.044370 0.000000 -0.000000 0.000000 -0.873695 0.677747 4.892570 -0.983980 -0.028326 2.802499 0.000000 0.000000 0.000000 -1.097908 -0.454251 1.868759 3.228373 -2.786075 9.348251 -1.064303 -0.451500 2.977407 -4.121511 6.263066 -0.645170 -71.930104 -6.314238 29.107361 0.118497 -5.273306 0.207325 -1.410391 -0.389033 2.572757 10.891891 -3.728194 0.204944 53.609493 32.528292 0.298803 179.444972 44.563359 -179.751163 0.000000 -0.000000 -0.000000 1.625635 12.379065 -17.029871 2.872137 2.306015 18.167185 0.000000 -0.000000 0.000000 -1.031084 -10.254940 -12.437029 -0.038151 -1.607503 17.679179 
-0.454863 -0.177714 -1.382854 -1.077816 -2.498998 -1.051604 0.000000 -0.000000 0.000000 -0.854338 0.665555 4.828226 -0.939800 -0.027126 2.799500 0.000000 0.000000 0.000000 -1.043706 -0.454814 1.892859 3.123711 -2.727065 9.293836 -1.015454 -0.448824 2.988045 -4.188435 6.177272 -0.637040 -72.056590 -6.555101 28.793383 0.117400 -4.964100 0.203487 -1.362581 -0.382219 2.585538 11.154276 -3.693571 0.190106 54.296316 31.824992 1.313384 179.471729 45.192239 -179.744481 0.000000 -0.000000 -0.000000 1.624151 12.387226 -17.006441 2.872535 2.315250 18.128093 0.000000 -0.000000 0.000000 -1.040934 -10.242552 -12.423147 -0.036784 -1.611352 17.662163 
